<svg xmlns="http://www.w3.org/2000/svg" viewBox="0 0 1200 630" width="1200" height="630">
  <defs>
    <linearGradient id="bg" x1="0" y1="0" x2="1" y2="1">
      <stop offset="0" stop-color="#FFF9F0" />
      <stop offset="1" stop-color="#FFE66D" />
    </linearGradient>
    <linearGradient id="title" x1="0" y1="0" x2="1" y2="0">
      <stop offset="0" stop-color="#FF6B35" />
      <stop offset="1" stop-color="#E63946" />
    </linearGradient>
  </defs>
  <rect width="1200" height="630" fill="url(#bg)" />

  <!-- mascot bubbles -->
  <g transform="translate(880,80)">
    <circle cx="60" cy="60" r="80" fill="#fff" stroke="#2D3047" stroke-width="6" />
    <circle cx="40" cy="50" r="14" fill="#2D3047" />
    <circle cx="80" cy="50" r="14" fill="#2D3047" />
    <path d="M40 80 Q60 95 80 80" stroke="#2D3047" stroke-width="6" fill="none" stroke-linecap="round" />
  </g>
  <g transform="translate(1000,260)">
    <circle cx="50" cy="50" r="60" fill="#9B5DE5" stroke="#2D3047" stroke-width="6" />
    <circle cx="35" cy="42" r="9" fill="#fff" />
    <circle cx="65" cy="42" r="9" fill="#fff" />
    <circle cx="35" cy="42" r="4" fill="#2D3047" />
    <circle cx="65" cy="42" r="4" fill="#2D3047" />
  </g>
  <g transform="translate(80,400)">
    <circle cx="60" cy="60" r="70" fill="#4ECDC4" stroke="#2D3047" stroke-width="6" />
    <circle cx="40" cy="50" r="12" fill="#2D3047" />
    <circle cx="80" cy="50" r="12" fill="#2D3047" />
    <path d="M40 80 Q60 95 80 80" stroke="#2D3047" stroke-width="6" fill="none" stroke-linecap="round" />
  </g>

  <text x="80" y="220" font-family="'Baloo 2', sans-serif" font-size="140" font-weight="800" fill="url(#title)">KidQuest</text>
  <text x="80" y="290" font-family="Nunito, sans-serif" font-size="40" font-weight="700" fill="#2D3047">A joyful learning adventure</text>
  <text x="80" y="345" font-family="Nunito, sans-serif" font-size="30" font-weight="700" fill="#2D3047" opacity="0.7">for kids ages 414 " 6 subjects " 90 lessons</text>

  <g transform="translate(80,440)">
    <rect width="160" height="60" rx="30" fill="#FF6B35" stroke="#2D3047" stroke-width="4" />
    <text x="80" y="42" text-anchor="middle" font-family="'Baloo 2', sans-serif" font-size="28" font-weight="800" fill="#fff">History</text>
  </g>
  <g transform="translate(260,440)">
    <rect width="200" height="60" rx="30" fill="#2A9D8F" stroke="#2D3047" stroke-width="4" />
    <text x="100" y="42" text-anchor="middle" font-family="'Baloo 2', sans-serif" font-size="28" font-weight="800" fill="#fff">Geography</text>
  </g>
  <g transform="translate(480,440)">
    <rect width="140" height="60" rx="30" fill="#9B5DE5" stroke="#2D3047" stroke-width="4" />
    <text x="70" y="42" text-anchor="middle" font-family="'Baloo 2', sans-serif" font-size="28" font-weight="800" fill="#fff">Music</text>
  </g>
  <g transform="translate(80,520)">
    <rect width="130" height="60" rx="30" fill="#3A86FF" stroke="#2D3047" stroke-width="4" />
    <text x="65" y="42" text-anchor="middle" font-family="'Baloo 2', sans-serif" font-size="28" font-weight="800" fill="#fff">Math</text>
  </g>
  <g transform="translate(230,520)">
    <rect width="280" height="60" rx="30" fill="#FB8500" stroke="#2D3047" stroke-width="4" />
    <text x="140" y="42" text-anchor="middle" font-family="'Baloo 2', sans-serif" font-size="28" font-weight="800" fill="#fff">General Knowledge</text>
  </g>
  <g transform="translate(530,520)">
    <rect width="140" height="60" rx="30" fill="#E63946" stroke="#2D3047" stroke-width="4" />
    <text x="70" y="42" text-anchor="middle" font-family="'Baloo 2', sans-serif" font-size="28" font-weight="800" fill="#fff">Trivia</text>
  </g>
</svg>
